<?xml version="1.0" encoding="UTF-8"?>
<svg version="1.1" xmlns="http://www.w3.org/2000/svg" width="808" height="808">
<path d="M0 0 C4.80059306 2.88447652 7.69116705 7.19850114 9.4375 12.4375 C12.02759922 25.52431714 6.18232479 35.68160298 0.7421875 47.26953125 C-20.67835692 92.99105767 -30.77726564 144.97335424 -30.8125 195.3125 C-30.81317474 196.18677643 -30.81384949 197.06105286 -30.81454468 197.96182251 C-30.70847826 285.26836237 0.12964407 371.54116998 55.99462891 438.69042969 C57.25740763 440.21943892 58.49603319 441.76833048 59.73046875 443.3203125 C69.43208908 455.51559509 80.37198712 467.67731068 92.25 477.8125 C94.3901908 479.65159932 96.50419379 481.49955209 98.5703125 483.421875 C120.35404121 503.6548976 146.2275488 520.55982537 172.4375 534.4375 C173.29601562 534.89737305 174.15453125 535.35724609 175.0390625 535.83105469 C230.80375161 565.5012441 296.1130867 582.10496647 359.4375 579.4375 C360.48679687 579.39641113 361.53609375 579.35532227 362.6171875 579.31298828 C414.08435067 577.1098671 466.01588381 566.01396447 512.15625 542.546875 C518.70056476 539.3926332 524.22956131 537.90001446 531.4375 537.8125 C532.14414795 537.8014624 532.8507959 537.7904248 533.57885742 537.77905273 C539.42065197 537.94146034 542.96266129 540.03320301 547.08203125 544.03515625 C552.23891719 550.50282256 552.40327716 557.18940319 551.77539062 565.20703125 C550.71646483 572.19716569 546.87720505 578.37569387 543.4375 584.4375 C542.96586426 585.28086914 542.49422852 586.12423828 542.00830078 586.99316406 C525.25689269 616.73357376 505.43672557 644.247872 482.4375 669.4375 C481.59703125 670.37078125 480.7565625 671.3040625 479.890625 672.265625 C471.19992163 681.88492407 462.26193875 691.40052709 452.359375 699.7890625 C450.99033043 700.96332431 449.6491349 702.17038755 448.328125 703.3984375 C441.17170694 710.05054422 433.49700939 715.92914305 425.67431641 721.765625 C424.23233118 722.84341531 422.79418807 723.92637471 421.36083984 725.015625 C338.58417473 787.8869928 232.23978876 813.33542998 109.859375 803.4375 C35.65623443 793.00741931 -35.92183276 764.61211499 -94.5625 717.4375 C-95.46484375 716.715625 -96.3671875 715.99375 -97.296875 715.25 C-100.07308084 713.00335944 -102.8190004 710.72397206 -105.5625 708.4375 C-106.57473633 707.59695068 -107.58697266 706.75640137 -108.62988281 705.89038086 C-117.13626644 698.75381106 -125.11788598 691.19447856 -132.94165039 683.3190918 C-134.88400484 681.36594512 -136.83692958 679.4238238 -138.79101562 677.48242188 C-145.1479135 671.13186033 -151.22111641 664.74391867 -156.78662109 657.67871094 C-158.41350718 655.62553328 -160.1054423 653.68022051 -161.875 651.75 C-183.81711654 626.90602582 -201.21828636 597.08454863 -215.61669922 567.36914062 C-216.5160593 565.5323474 -217.44668576 563.71096092 -218.37890625 561.890625 C-243.39742582 512.17704429 -256.5826695 453.19436471 -256.765625 397.71484375 C-256.76845238 397.03356478 -256.77127975 396.3522858 -256.77419281 395.65036201 C-256.78906444 392.03244794 -256.79836501 388.41457238 -256.80273438 384.79663086 C-256.80708126 381.87560273 -256.82084195 378.95487626 -256.84375 376.03393555 C-257.34019188 311.35983804 -242.84071143 245.96041053 -212.63867188 188.5 C-211.42100147 186.16631588 -210.23404251 183.81809202 -209.046875 181.46875 C-202.87088618 169.34054008 -196.08038513 157.78036149 -188.5625 146.4375 C-187.85843018 145.37208984 -187.85843018 145.37208984 -187.14013672 144.28515625 C-181.1064698 135.20612539 -174.69529953 126.49878269 -167.84277344 118.02197266 C-166.64089079 116.53451682 -165.44899207 115.03900953 -164.2578125 113.54296875 C-159.47096505 107.58922076 -154.4348286 101.9253927 -149.23828125 96.33203125 C-146.87175289 93.77203488 -144.55613561 91.17669083 -142.25 88.5625 C-133.9328152 79.30290037 -125.08091558 70.4594188 -115.5625 62.4375 C-114.62019531 61.60605469 -113.67789063 60.77460937 -112.70703125 59.91796875 C-29.53946557 -13.24182939 -29.53946557 -13.24182939 0 0 Z " fill="#34254C" transform="translate(256.5625,1.5625)"/>
<path d="M0 0 C4.80059306 2.88447652 7.69116705 7.19850114 9.4375 12.4375 C12.02759922 25.52431714 6.18232479 35.68160298 0.7421875 47.26953125 C-20.67835692 92.99105767 -30.77726564 144.97335424 -30.8125 195.3125 C-30.81317474 196.18677643 -30.81384949 197.06105286 -30.81454468 197.96182251 C-30.70847826 285.26836237 0.12964407 371.54116998 55.99462891 438.69042969 C57.25740763 440.21943892 58.49603319 441.76833048 59.73046875 443.3203125 C69.43208908 455.51559509 80.37198712 467.67731068 92.25 477.8125 C94.3901908 479.65159932 96.50419379 481.49955209 98.5703125 483.421875 C120.35404121 503.6548976 146.2275488 520.55982537 172.4375 534.4375 C173.29601562 534.89737305 174.15453125 535.35724609 175.0390625 535.83105469 C230.80375161 565.5012441 296.1130867 582.10496647 359.4375 579.4375 C360.48679687 579.39641113 361.53609375 579.35532227 362.6171875 579.31298828 C414.08435067 577.1098671 466.01588381 566.01396447 512.15625 542.546875 C518.70056476 539.3926332 524.22956131 537.90001446 531.4375 537.8125 C532.14414795 537.8014624 532.8507959 537.7904248 533.57885742 537.77905273 C539.42065197 537.94146034 542.96266129 540.03320301 547.08203125 544.03515625 C552.23891719 550.50282256 552.40327716 557.18940319 551.77539062 565.20703125 C550.71646483 572.19716569 546.87720505 578.37569387 543.4375 584.4375 C542.96586426 585.28086914 542.49422852 586.12423828 542.00830078 586.99316406 C525.25689269 616.73357376 505.43672557 644.247872 482.4375 669.4375 C481.59703125 670.37078125 480.7565625 671.3040625 479.890625 672.265625 C471.19992163 681.88492407 462.26193875 691.40052709 452.359375 699.7890625 C450.99033043 700.96332431 449.6491349 702.17038755 448.328125 703.3984375 C441.17170694 710.05054422 433.49700939 715.92914305 425.67431641 721.765625 C424.23233118 722.84341531 422.79418807 723.92637471 421.36083984 725.015625 C338.58417473 787.8869928 232.23978876 813.33542998 109.859375 803.4375 C35.65623443 793.00741931 -35.92183276 764.61211499 -94.5625 717.4375 C-95.46484375 716.715625 -96.3671875 715.99375 -97.296875 715.25 C-100.07308084 713.00335944 -102.8190004 710.72397206 -105.5625 708.4375 C-106.57473633 707.59695068 -107.58697266 706.75640137 -108.62988281 705.89038086 C-117.13626644 698.75381106 -125.11788598 691.19447856 -132.94165039 683.3190918 C-134.88400484 681.36594512 -136.83692958 679.4238238 -138.79101562 677.48242188 C-145.1479135 671.13186033 -151.22111641 664.74391867 -156.78662109 657.67871094 C-158.41350718 655.62553328 -160.1054423 653.68022051 -161.875 651.75 C-183.81711654 626.90602582 -201.21828636 597.08454863 -215.61669922 567.36914062 C-216.5160593 565.5323474 -217.44668576 563.71096092 -218.37890625 561.890625 C-243.39742582 512.17704429 -256.5826695 453.19436471 -256.765625 397.71484375 C-256.76845238 397.03356478 -256.77127975 396.3522858 -256.77419281 395.65036201 C-256.78906444 392.03244794 -256.79836501 388.41457238 -256.80273438 384.79663086 C-256.80708126 381.87560273 -256.82084195 378.95487626 -256.84375 376.03393555 C-257.34019188 311.35983804 -242.84071143 245.96041053 -212.63867188 188.5 C-211.42100147 186.16631588 -210.23404251 183.81809202 -209.046875 181.46875 C-202.87088618 169.34054008 -196.08038513 157.78036149 -188.5625 146.4375 C-187.85843018 145.37208984 -187.85843018 145.37208984 -187.14013672 144.28515625 C-181.1064698 135.20612539 -174.69529953 126.49878269 -167.84277344 118.02197266 C-166.64089079 116.53451682 -165.44899207 115.03900953 -164.2578125 113.54296875 C-159.47096505 107.58922076 -154.4348286 101.9253927 -149.23828125 96.33203125 C-146.87175289 93.77203488 -144.55613561 91.17669083 -142.25 88.5625 C-133.9328152 79.30290037 -125.08091558 70.4594188 -115.5625 62.4375 C-114.62019531 61.60605469 -113.67789063 60.77460937 -112.70703125 59.91796875 C-29.53946557 -13.24182939 -29.53946557 -13.24182939 0 0 Z M-23.375 5.75 C-24.10799316 6.1104541 -24.84098633 6.4709082 -25.59619141 6.84228516 C-55.46017493 21.78376156 -85.26367471 41.48062167 -109.5625 64.4375 C-110.89022832 65.61054152 -112.22347889 66.7773658 -113.5625 67.9375 C-114.89632798 69.10360111 -116.22964039 70.27029216 -117.5625 71.4375 C-118.68205078 72.41589844 -118.68205078 72.41589844 -119.82421875 73.4140625 C-129.0166179 81.55547882 -137.95592002 90.13109075 -145.90625 99.50390625 C-147.82235577 101.74086935 -149.81762856 103.89553578 -151.8125 106.0625 C-157.39803453 112.26339003 -162.50741507 118.80270102 -167.5625 125.4375 C-168.23152344 126.31317627 -168.23152344 126.31317627 -168.9140625 127.20654297 C-181.40245516 143.64320304 -192.26777924 161.07831801 -202.27246094 179.12011719 C-203.37636129 181.10312667 -204.49944757 183.07283753 -205.6328125 185.0390625 C-230.1919345 228.91665703 -244.36041286 279.80710417 -250.5625 329.4375 C-250.6933046 330.44012878 -250.6933046 330.44012878 -250.82675171 331.4630127 C-252.83619063 347.22472192 -252.91990438 362.94206088 -252.875 378.8125 C-252.8730777 380.15788766 -252.87123709 381.50327545 -252.86947632 382.84866333 C-252.83324532 401.88350829 -252.47436765 420.59347463 -249.5625 439.4375 C-249.39621094 440.58847168 -249.22992188 441.73944336 -249.05859375 442.92529297 C-240.2103998 503.3633733 -218.2111042 561.46023626 -184.5625 612.4375 C-183.77141846 613.63850342 -183.77141846 613.63850342 -182.96435547 614.86376953 C-176.08175902 625.25489726 -168.83911146 635.21221377 -160.89550781 644.81640625 C-159.68247296 646.29159882 -158.49226035 647.7854835 -157.3046875 649.28125 C-147.8144806 661.18778265 -137.09644145 671.99694678 -126.38262939 682.79260254 C-125.39455635 683.78871585 -124.40796828 684.78630485 -123.42303467 685.78552246 C-116.80779395 692.48658711 -109.91504585 698.5634512 -102.5625 704.4375 C-101.46081785 705.37245161 -100.36447099 706.31378865 -99.27734375 707.265625 C-37.04365894 761.53409839 48.34925088 795.14805441 130.4375 801.4375 C132.10631226 801.56668823 132.10631226 801.56668823 133.80883789 801.69848633 C144.6261831 802.4585363 155.40808218 802.64085131 166.25 802.625 C167.14989655 802.62373108 168.04979309 802.62246216 168.97695923 802.62115479 C214.98336155 802.4981634 260.87560992 795.50556189 304.4375 780.4375 C305.29617676 780.1482666 306.15485352 779.8590332 307.03955078 779.56103516 C347.63852357 765.84649488 386.36965282 745.41508688 420.4375 719.4375 C421.06011719 718.96505859 421.68273437 718.49261719 422.32421875 718.00585938 C443.1540627 702.12809986 463.71276554 684.40369755 480.71875 664.4296875 C481.92097961 663.03619409 483.15297441 661.6680811 484.40625 660.3203125 C491.68700994 652.4855817 498.0600265 644.00820668 504.4375 635.4375 C505.25855225 634.33776855 505.25855225 634.33776855 506.09619141 633.21582031 C517.23757545 618.23475024 527.13714088 602.6576147 536.375 586.4375 C537.17260742 585.04108276 537.17260742 585.04108276 537.98632812 583.61645508 C546.17145451 569.88940513 546.17145451 569.88940513 547.4375 554.4375 C545.51028083 548.76291022 541.79648258 545.11699129 536.4375 542.4375 C526.08169395 540.17882625 517.2993899 545.83838764 508.27978516 550.12011719 C428.12572645 587.27106211 335.3760478 592.52586244 250.4375 570.4375 C249.30489746 570.14391602 248.17229492 569.85033203 247.00537109 569.54785156 C205.00011404 558.4242941 161.92108349 539.0217604 127.4375 512.4375 C126.16695531 511.4913497 124.89466901 510.54753575 123.62109375 509.60546875 C112.38982215 501.28360611 101.59197691 492.64457922 91.34765625 483.12890625 C88.69696581 480.67746234 86.01300667 478.27122423 83.3125 475.875 C75.50881438 468.86045113 68.21911476 461.44064785 61.4375 453.4375 C60.63957031 452.51710938 59.84164063 451.59671875 59.01953125 450.6484375 C41.10117472 429.888883 25.69796884 407.433102 12.4375 383.4375 C11.99873535 382.65568359 11.5599707 381.87386719 11.10791016 381.06835938 C-36.76514652 295.3474684 -47.38990647 189.43226005 -21.5 95.15625 C-15.37574869 73.59587347 -7.66407937 52.70925914 1.85717773 32.41088867 C2.31036377 31.4438501 2.7635498 30.47681152 3.23046875 29.48046875 C3.84571411 28.19305786 3.84571411 28.19305786 4.47338867 26.87963867 C6.33082513 22.17466606 6.2604084 18.02115653 4.73828125 13.2421875 C2.63529724 8.43283166 0.15197522 5.94519958 -4.5625 3.4375 C-11.64212096 1.07762635 -16.99147584 2.51762246 -23.375 5.75 Z " fill="#5D40C5" transform="translate(256.5625,1.5625)"/>
</svg>
