<?xml version="1.0" encoding="UTF-8"?>
<svg version="1.1" xmlns="http://www.w3.org/2000/svg" width="808" height="808">
<path d="M0 0 C0.75616608 0.00093658 1.51233215 0.00187317 2.29141235 0.00283813 C13.44485839 0.03278285 24.43725121 0.19009916 35.4375 2.1875 C36.3027832 2.34347656 37.16806641 2.49945313 38.05957031 2.66015625 C78.09787663 10.13877452 113.62218439 27.34637337 143.4375 55.1875 C145.16583842 56.70927452 146.89501226 58.23010073 148.625 59.75 C152.9380603 63.64847156 156.7545175 67.69587862 160.4375 72.1875 C161.06712646 72.93265869 161.06712646 72.93265869 161.70947266 73.69287109 C199.2687142 118.17607716 214.08136876 174.07017172 210.21044922 231.55957031 C205.61168591 283.12736062 180.58534857 334.87929276 140.77246094 368.59765625 C136.74151016 371.90164048 132.60310709 375.05621451 128.4375 378.1875 C127.51066406 378.89777344 126.58382813 379.60804688 125.62890625 380.33984375 C89.3059687 407.59553983 45.8495187 420.39931079 0.75 420.4375 C0.02784302 420.43817474 -0.69431396 420.43884949 -1.43835449 420.43954468 C-51.98886253 420.36508699 -99.26565911 403.30670515 -137.5625 370.1875 C-138.50738281 369.3728125 -139.45226562 368.558125 -140.42578125 367.71875 C-178.4703723 334.11170845 -201.95050644 288.41795777 -208.5625 238.1875 C-208.6641748 237.45700439 -208.76584961 236.72650879 -208.87060547 235.97387695 C-209.93628574 227.15494528 -209.8063346 218.2446055 -209.8125 209.375 C-209.81317474 208.50345276 -209.81384949 207.63190552 -209.81454468 206.73394775 C-209.79845115 193.64705118 -209.28175234 181.02766374 -206.5625 168.1875 C-206.40152832 167.36330566 -206.24055664 166.53911133 -206.07470703 165.68994141 C-197.96645309 124.58787026 -176.91164937 90.36562675 -148.5625 60.1875 C-147.98113281 59.55199219 -147.39976562 58.91648438 -146.80078125 58.26171875 C-141.04077847 52.18252186 -134.21279083 47.23968811 -127.5625 42.1875 C-126.60730469 41.46046875 -125.65210938 40.7334375 -124.66796875 39.984375 C-88.48859493 13.07497251 -44.85925605 -0.07177481 0 0 Z " fill="#FF93FF" transform="translate(403.5625,193.8125)"/>
<path d="M0 0 C1.30324219 -0.0309375 1.30324219 -0.0309375 2.6328125 -0.0625 C18.42954142 -0.15737525 26.76065534 10.68767914 37.31208706 21.0920763 C39.37297709 23.13083425 41.43118932 25.17225379 43.48828125 27.21484375 C44.5573877 28.27596469 44.5573877 28.27596469 45.64809227 29.35852242 C49.41122888 33.0951285 53.17081651 36.83526797 56.92797852 40.57788086 C60.01970595 43.65622455 63.11856029 46.72711416 66.22387695 49.79174805 C70.00079352 53.51922005 73.765167 57.25893692 77.52098656 61.00766182 C78.94438983 62.42438486 80.37201845 63.83687672 81.80407143 65.24485588 C92.25737968 75.53219296 100.27482648 84.03187858 100.5 99.4375 C100.36817977 110.0670036 97.66825801 117.52646388 90.25 125.25 C81.59970217 132.79600449 72.3389286 133.82223202 61.25 133.25 C50.54289282 132.1845293 43.09658431 125.55588506 35.77416992 118.16235352 C35.08677734 117.4802179 34.39938477 116.79808228 33.69116211 116.09527588 C31.44671722 113.8639132 29.21328313 111.62190234 26.98046875 109.37890625 C25.41151428 107.81197543 23.84211494 106.24548994 22.27229309 104.6794281 C18.99539826 101.40694028 15.72395073 98.12912846 12.45629883 94.84741211 C8.27581767 90.64981203 4.08197286 86.4658634 -0.1160326 82.28579807 C-3.3548637 79.05782435 -6.58649494 75.82271866 -9.81601524 72.58543205 C-11.35952521 71.03992698 -12.90524988 69.49663036 -14.45325661 67.95562935 C-16.61657649 65.79995896 -18.76999642 63.63485085 -20.92114258 61.46704102 C-21.55652451 60.83773178 -22.19190643 60.20842255 -22.84654236 59.56004333 C-30.79172371 51.5009234 -32.9353413 44.58896774 -33 33.5 C-33.020625 32.63117187 -33.04125 31.76234375 -33.0625 30.8671875 C-33.12374522 20.66985799 -30.06576626 14.83303063 -23.09765625 7.45703125 C-16.04383878 0.82573862 -9.28291531 0.05412779 0 0 Z " fill="#FF93FF" transform="translate(599.75,566.75)"/>
<path d="M0 0 C7.36778056 7.46773107 10.07042867 15.12020923 10.375 25.5 C9.97875851 39.55006266 3.65156145 47.65303681 -5.97998047 57.27050781 C-6.65075623 57.94800079 -7.32153198 58.62549377 -8.01263428 59.32351685 C-10.208927 61.53864974 -12.41253519 63.74631408 -14.6171875 65.953125 C-16.15900929 67.50138155 -17.70068372 69.04978484 -19.24221802 70.59832764 C-22.46473738 73.83278269 -25.69132357 77.06311755 -28.92041016 80.29101562 C-33.04844394 84.41884578 -37.16252192 88.56028923 -41.27322197 92.70537186 C-44.44918265 95.90360627 -47.63422924 99.09267218 -50.82187271 102.27925873 C-52.34246775 103.80220654 -53.85983779 105.32838173 -55.37383652 106.85788727 C-57.49354752 108.99727812 -59.62566067 111.12352533 -61.76123047 113.24707031 C-62.37759369 113.87467255 -62.99395691 114.50227478 -63.6289978 115.14889526 C-71.36357589 122.7737434 -78.95405022 125.19634307 -89.625 125.3125 C-90.48996094 125.34150391 -91.35492187 125.37050781 -92.24609375 125.40039062 C-101.57856906 125.49133679 -108.42052999 122.23244223 -115.20703125 115.93359375 C-122.06415196 108.53865966 -123.19310354 102.00774371 -123.25 92.25 C-123.270625 91.38117188 -123.29125 90.51234375 -123.3125 89.6171875 C-123.40737525 73.82045858 -112.56232086 65.48934466 -102.1579237 54.93791294 C-100.11916575 52.87702291 -98.07774621 50.81881068 -96.03515625 48.76171875 C-94.97403531 47.6926123 -94.97403531 47.6926123 -93.89147758 46.60190773 C-90.1548715 42.83877112 -86.41473203 39.07918349 -82.67211914 35.32202148 C-79.59377545 32.23029405 -76.52288584 29.13143971 -73.45825195 26.02612305 C-69.73077995 22.24920648 -65.99106308 18.484833 -62.24233818 14.72901344 C-60.82561514 13.30561017 -59.41312328 11.87798155 -58.00514412 10.44592857 C-42.18653597 -5.62788973 -20.17616528 -17.19392187 0 0 Z " fill="#FF93FF" transform="translate(690,116)"/>
<path d="M0 0 C2.61477496 2.24142263 5.05005509 4.62853767 7.47583008 7.07177734 C8.50691895 8.09257133 8.50691895 8.09257133 9.55883789 9.13398743 C11.80339996 11.36041543 14.03687574 13.59757447 16.26953125 15.8359375 C17.83855975 17.40039912 19.40795784 18.96449014 20.97770691 20.52822876 C24.2547499 23.79636794 27.52609667 27.07008113 30.79370117 30.34765625 C34.97248319 34.5379481 39.16694856 38.71213593 43.3660326 42.88207054 C46.60650189 46.10416254 49.83757697 49.33554811 53.06601524 52.5696907 C54.60864035 54.11246871 56.15435436 55.65216476 57.70325661 57.18864059 C59.86897458 59.33941541 62.02146542 61.50264158 64.17114258 63.66943359 C64.80652451 64.29514755 65.44190643 64.92086151 66.09654236 65.5655365 C74.49535598 74.1043662 76.3935573 82.50514815 76.45092773 94.16699219 C76.27642029 103.2089127 73.92224945 109.57211987 67.87890625 116.39453125 C60.41560419 123.57327067 53.24067492 125.52277032 43.0625 125.4375 C42.22009766 125.45748047 41.37769531 125.47746094 40.50976562 125.49804688 C26.46381722 125.48723398 18.28146461 116.41653829 8.91308594 107.09008789 C8.2551001 106.43867325 7.59711426 105.78725861 6.91918945 105.11610413 C4.77139489 102.98781046 2.62745006 100.85570159 0.484375 98.72265625 C-0.25351006 97.98884672 -0.99139511 97.25503719 -1.75164032 96.49899101 C-5.64955393 92.62182892 -9.54426031 88.74147673 -13.43652344 84.85864258 C-17.44499214 80.86127682 -21.46501011 76.87573528 -25.48767471 72.892663 C-28.59306004 69.81344775 -31.68950233 66.72535542 -34.78362274 63.63482475 C-36.26177316 62.16153114 -37.74328773 60.69160445 -39.22827911 59.22520638 C-41.30531538 57.17259154 -43.36928131 55.10762552 -45.43066406 53.03930664 C-46.03956482 52.44321594 -46.64846558 51.84712524 -47.27581787 51.23297119 C-54.52076395 43.89915814 -57.11247498 36.54665339 -57.25 26.3125 C-57.12604363 15.51702699 -54.68172194 7.78593134 -47 0 C-33.11199496 -11.83521597 -14.0707699 -10.48510901 0 0 Z " fill="#FF93FF" transform="translate(165,116)"/>
<path d="M0 0 C0.86882812 -0.020625 1.73765625 -0.04125 2.6328125 -0.0625 C12.77090876 -0.12338947 18.69209128 2.91023726 26.04296875 9.83203125 C32.20262537 16.58039842 33.49944805 23.8879655 33.6875 32.6875 C33.73326172 33.52732422 33.77902344 34.36714844 33.82617188 35.23242188 C34.03069704 46.96149529 27.90968563 55.06696021 20.11816406 63.14233398 C17.19453456 66.12150186 14.23335698 69.06094412 11.265625 71.99609375 C9.68294939 73.58027447 8.10123974 75.16542076 6.52044678 76.7514801 C3.2181182 80.05812179 -0.09446432 83.35401847 -3.41503906 86.64233398 C-7.65467812 90.84214749 -11.8692561 95.06610455 -16.07665634 99.2981863 C-19.33436006 102.57011918 -22.60415696 105.82974713 -25.87775421 109.08577156 C-27.43607488 110.63827414 -28.99088582 112.19430841 -30.54198456 113.75402641 C-32.71620004 115.93629674 -34.90602221 118.10164554 -37.10058594 120.26342773 C-37.72846008 120.89985199 -38.35633423 121.53627625 -39.00323486 122.19198608 C-47.76905158 130.73475568 -56.98005343 133.53676672 -69.00390625 133.40625 C-78.89467667 132.84347501 -87.14504012 128.5616634 -93.75 121.25 C-100.01102943 111.2261844 -101.35039549 100.77102463 -99.171875 89.171875 C-94.99924042 75.89531042 -81.27098743 65.5937716 -71.6796875 55.9765625 C-70.61294989 54.90558382 -70.61294989 54.90558382 -69.52466202 53.81296921 C-65.77156614 50.04499088 -62.01568951 46.27981199 -58.25732422 42.51708984 C-54.3894741 38.64372677 -50.5310135 34.76114754 -46.67460442 30.87639809 C-43.69072948 27.87388126 -40.70014991 24.87811108 -37.70770645 21.8841362 C-36.28192799 20.45534148 -34.85863847 19.02405837 -33.43795395 17.59019852 C-31.4524943 15.58762306 -29.4577169 13.59479348 -27.46044922 11.60400391 C-26.88260681 11.01694672 -26.3047644 10.42988953 -25.70941162 9.82504272 C-17.83305981 2.02816293 -10.82379759 0.06311252 0 0 Z " fill="#FF93FF" transform="translate(207.75,566.75)"/>
<path d="M0 0 C0.96846359 -0.00997513 1.93692719 -0.01995026 2.93473816 -0.03022766 C3.985737 -0.03089233 5.03673584 -0.03155701 6.11958313 -0.03224182 C7.23566452 -0.04056534 8.35174591 -0.04888885 9.50164795 -0.0574646 C13.19244373 -0.08156489 16.88306269 -0.09033768 20.57392883 -0.09693909 C23.14357557 -0.10590664 25.71322177 -0.11502851 28.28286743 -0.1242981 C33.67214071 -0.14079163 39.06134299 -0.14852155 44.45063782 -0.15138245 C50.65997398 -0.15501177 56.86881407 -0.184867 63.07799882 -0.22678703 C69.07038212 -0.26581074 75.06249281 -0.27697795 81.05501747 -0.2781086 C83.59504189 -0.28230538 86.13506694 -0.2947177 88.67500877 -0.31562614 C92.23639423 -0.34260476 95.79642751 -0.33769386 99.35786438 -0.32521057 C100.39874207 -0.34004486 101.43961975 -0.35487915 102.51203918 -0.37016296 C111.36004727 -0.28224107 119.10146666 2.58441073 125.43721008 8.96165466 C132.25354495 16.45410371 133.39891606 23.53213977 133.49971008 33.39915466 C133.51517883 34.67000916 133.51517883 34.67000916 133.53096008 35.96653748 C133.39160774 45.88765006 130.25010806 51.87752484 123.48017883 59.06712341 C118.3684735 63.73289645 112.38468386 66.38537514 105.43412781 66.42132568 C104.48379669 66.42848099 103.53346558 66.43563629 102.55433655 66.44300842 C100.99274811 66.44704178 100.99274811 66.44704178 99.39961243 66.45115662 C97.75277969 66.46101341 97.75277969 66.46101341 96.07267761 66.47106934 C92.43116693 66.4908153 88.78969755 66.50246894 85.14814758 66.51243591 C83.90442005 66.51651144 82.66069252 66.52058697 81.37927628 66.524786 C75.47340526 66.54350175 69.56754735 66.55806471 63.66165388 66.56639796 C56.85960577 66.57615556 50.05788437 66.60243668 43.25595129 66.64289886 C37.35332056 66.67679749 31.45076904 66.68855132 25.54803848 66.69260216 C23.04347649 66.69746795 20.53891798 66.70908164 18.03442001 66.72764015 C14.52307566 66.75203849 11.01257845 66.75106452 7.50117493 66.74412537 C5.95780457 66.76334045 5.95780457 66.76334045 4.383255 66.78294373 C-5.72670796 66.71036504 -12.65900235 63.28668544 -19.98857117 56.43040466 C-27.962211 47.60986521 -27.56152941 36.68448619 -27.1125946 25.46556091 C-26.47663156 17.49292921 -21.53261831 11.63789231 -15.93778992 6.27415466 C-10.91558769 2.45728097 -6.36711226 0.03534179 0 0 Z " fill="#FF93FF" transform="translate(674.9377899169922,370.72584533691406)"/>
<path d="M0 0 C1.10866425 -0.0071553 2.21732849 -0.01431061 3.35958862 -0.02168274 C6.99593287 -0.03848424 10.63102949 -0.01921681 14.26733398 0.00219727 C16.8098104 0.00136785 19.35228676 -0.00109427 21.89476013 -0.00511169 C27.21143236 -0.00796381 32.52766971 0.00613976 37.84423828 0.03417969 C43.97017853 0.06624141 50.09548201 0.06620456 56.22146755 0.04896492 C62.14287032 0.03304247 68.06407963 0.03996953 73.98548698 0.05690193 C76.49281229 0.06207016 79.0001559 0.06161853 81.50747871 0.05535698 C85.01579859 0.04988328 88.52305179 0.07035044 92.03125 0.09765625 C93.058517 0.09113037 94.085784 0.08460449 95.1441803 0.07788086 C104.74606906 0.20441916 111.71375851 3.25534203 118.72827148 9.76782227 C121.28908997 12.53768716 122.81170718 15.22656852 124.45092773 18.63110352 C124.80670898 19.3362207 125.16249023 20.04133789 125.52905273 20.76782227 C128.3579828 29.55428725 127.86310586 42.29566865 123.78295898 50.55688477 C118.74823003 58.39688792 112.64273953 64.22673096 103.45092773 66.63110352 C99.78312495 66.92853426 96.1261194 66.92486686 92.44775391 66.92163086 C91.34942734 66.92834808 90.25110077 66.93506531 89.11949158 66.94198608 C85.49424699 66.96095947 81.86918761 66.96489001 78.24389648 66.96704102 C75.71812362 66.97346945 73.1923515 66.98019785 70.6665802 66.98721313 C65.37323989 66.99918432 60.07996831 67.00297992 54.78662109 67.00170898 C48.68580714 67.00050852 42.58534749 67.02159707 36.48462313 67.05319631 C30.59637122 67.08259803 24.70825845 67.08968243 18.81994057 67.08848953 C16.32375962 67.09084506 13.82757588 67.09966582 11.33144188 67.11515427 C7.83475999 67.13481935 4.3389826 67.12897315 0.84228516 67.11694336 C-0.18191528 67.12818237 -1.20611572 67.13942139 -2.26135254 67.15100098 C-11.80984997 67.06781382 -18.77945588 64.04002891 -25.75610352 57.56469727 C-34.09983994 48.56655014 -34.07608187 39.53676014 -33.88891602 27.80297852 C-33.63001593 21.7913399 -32.32558219 17.37570355 -28.54907227 12.63110352 C-28.04118164 11.98270508 -27.53329102 11.33430664 -27.01000977 10.66625977 C-19.61464892 2.37714678 -10.78166717 -0.12295762 0 0 Z " fill="#FF93FF" transform="translate(33.549072265625,370.368896484375)"/>
<path d="M0 0 C8.13401995 4.88961595 13.77398517 11.31226086 16.25 20.5625 C16.66845965 24.30971778 16.67063105 28.02499658 16.65405273 31.79272461 C16.66091599 32.89134323 16.66777924 33.98996185 16.67485046 35.12187195 C16.69308077 38.73632912 16.68928623 42.35035068 16.68359375 45.96484375 C16.68815724 48.48775879 16.69346332 51.01067259 16.69947815 53.53358459 C16.70840179 58.8149916 16.70622975 64.09628646 16.69604492 69.37768555 C16.68456689 75.4637906 16.69864167 81.54945481 16.7254414 87.6355018 C16.75034883 93.51416538 16.75276304 99.3926586 16.74632454 105.27136421 C16.7461715 107.76195573 16.75220115 110.2525558 16.76461601 112.74311638 C16.77954982 116.2300349 16.76883013 119.71599172 16.75170898 123.20288086 C16.76137695 124.22393921 16.77104492 125.24499756 16.78100586 126.29699707 C16.68216987 135.94552506 13.59036614 142.81779495 7.04296875 149.83984375 C-0.0210526 156.62684466 -7.16082033 157.92345716 -16.5625 157.9375 C-17.41392578 157.96199219 -18.26535156 157.98648438 -19.14257812 158.01171875 C-28.49351236 158.0544496 -35.26020563 154.665186 -42.02734375 148.35546875 C-49.22704687 140.8619002 -50.04924065 133.46373966 -50.04052734 123.55932617 C-50.04724457 122.4609996 -50.05396179 121.36267303 -50.06088257 120.23106384 C-50.07985595 116.60581926 -50.08378649 112.98075988 -50.0859375 109.35546875 C-50.09236594 106.82969589 -50.09909433 104.30392377 -50.10610962 101.77815247 C-50.1180808 96.48481215 -50.1218764 91.19154057 -50.12060547 85.89819336 C-50.119405 79.79737941 -50.14049355 73.69691976 -50.1720928 67.5961954 C-50.20149452 61.70794348 -50.20857891 55.81983072 -50.20738602 49.93151283 C-50.20974155 47.43533189 -50.2185623 44.93914815 -50.23405075 42.44301414 C-50.25371583 38.94633225 -50.24786964 35.45055487 -50.23583984 31.95385742 C-50.24707886 30.92965698 -50.25831787 29.90545654 -50.26989746 28.85021973 C-50.18924487 19.59264844 -47.32161934 12.1574697 -40.88671875 5.42578125 C-29.86941157 -4.18163287 -13.34017203 -6.04370738 0 0 Z " fill="#FF93FF" transform="translate(420.75,650.4375)"/>
<path d="M0 0 C2.16015625 1.390625 2.16015625 1.390625 4.0625 2.9375 C4.72121094 3.46859375 5.37992187 3.9996875 6.05859375 4.546875 C11.19382575 9.20167989 15.73263397 15.94494358 16.2023077 23.05350399 C16.20917882 23.87582799 16.21604994 24.69815199 16.22312927 25.5453949 C16.2331749 26.49139053 16.24322052 27.43738617 16.25357056 28.41204834 C16.25940155 29.44839417 16.26523254 30.48473999 16.27124023 31.55249023 C16.28102402 32.64555984 16.2908078 33.73862946 16.30088806 34.86482239 C16.33086365 38.49190045 16.35223866 42.11894142 16.37109375 45.74609375 C16.37766558 46.98607683 16.3842374 48.22605991 16.39100838 49.50361824 C16.41690449 54.72020332 16.44039018 59.93678295 16.45550442 65.15341091 C16.47735238 72.60501662 16.51919185 80.05589642 16.58894199 87.5072121 C16.64215161 93.39382313 16.66201718 99.28021169 16.67070198 105.16703987 C16.67923731 107.66078367 16.69800742 110.15451525 16.7274456 112.6480999 C17.02280846 139.10071432 17.02280846 139.10071432 8.1181488 149.12669373 C0.98822262 156.2769851 -7.12850048 158.31786579 -16.9375 158.4375 C-27.65573526 158.29590734 -34.60528003 155.55132132 -42.83203125 148.62109375 C-48.8925268 140.89649181 -50.67978705 132.99283773 -50.56860352 123.36669922 C-50.57575882 122.26764252 -50.58291412 121.16858582 -50.59028625 120.03622437 C-50.60706384 116.43777692 -50.58783589 112.84059441 -50.56640625 109.2421875 C-50.56723583 106.72356056 -50.56969855 104.20493369 -50.57371521 101.68630981 C-50.57656558 96.42273544 -50.56248066 91.15948351 -50.53442383 85.89599609 C-50.50234658 79.83194909 -50.50240644 73.76854525 -50.5196386 67.7044524 C-50.53556108 61.84016005 -50.52863471 55.9761028 -50.51170158 50.11182022 C-50.50653429 47.62961475 -50.50698384 45.14739078 -50.51324654 42.66518784 C-50.51872054 39.19289564 -50.49825288 35.72168099 -50.47094727 32.24951172 C-50.47747314 31.2331665 -50.48399902 30.21682129 -50.49072266 29.16967773 C-50.36405741 19.65630079 -47.31850301 12.68778558 -40.875 5.73046875 C-30.76816945 -3.62242484 -12.55249727 -5.96341381 0 0 Z " fill="#FF93FF" transform="translate(420.9375,2.0625)"/>
<path d="M0 0 C0.75616608 0.00093658 1.51233215 0.00187317 2.29141235 0.00283813 C13.44485839 0.03278285 24.43725121 0.19009916 35.4375 2.1875 C36.3027832 2.34347656 37.16806641 2.49945313 38.05957031 2.66015625 C78.09787663 10.13877452 113.62218439 27.34637337 143.4375 55.1875 C145.16583842 56.70927452 146.89501226 58.23010073 148.625 59.75 C152.9380603 63.64847156 156.7545175 67.69587862 160.4375 72.1875 C161.06712646 72.93265869 161.06712646 72.93265869 161.70947266 73.69287109 C199.2687142 118.17607716 214.08136876 174.07017172 210.21044922 231.55957031 C205.61168591 283.12736062 180.58534857 334.87929276 140.77246094 368.59765625 C136.74151016 371.90164048 132.60310709 375.05621451 128.4375 378.1875 C127.51066406 378.89777344 126.58382813 379.60804688 125.62890625 380.33984375 C89.3059687 407.59553983 45.8495187 420.39931079 0.75 420.4375 C0.02784302 420.43817474 -0.69431396 420.43884949 -1.43835449 420.43954468 C-51.98886253 420.36508699 -99.26565911 403.30670515 -137.5625 370.1875 C-138.50738281 369.3728125 -139.45226562 368.558125 -140.42578125 367.71875 C-178.4703723 334.11170845 -201.95050644 288.41795777 -208.5625 238.1875 C-208.6641748 237.45700439 -208.76584961 236.72650879 -208.87060547 235.97387695 C-209.93628574 227.15494528 -209.8063346 218.2446055 -209.8125 209.375 C-209.81317474 208.50345276 -209.81384949 207.63190552 -209.81454468 206.73394775 C-209.79845115 193.64705118 -209.28175234 181.02766374 -206.5625 168.1875 C-206.40152832 167.36330566 -206.24055664 166.53911133 -206.07470703 165.68994141 C-197.96645309 124.58787026 -176.91164937 90.36562675 -148.5625 60.1875 C-147.98113281 59.55199219 -147.39976562 58.91648438 -146.80078125 58.26171875 C-141.04077847 52.18252186 -134.21279083 47.23968811 -127.5625 42.1875 C-126.60730469 41.46046875 -125.65210938 40.7334375 -124.66796875 39.984375 C-88.48859493 13.07497251 -44.85925605 -0.07177481 0 0 Z M-151.06787109 69.78051758 C-161.68672072 81.10879378 -170.91511445 93.67626955 -178.5625 107.1875 C-178.94615723 107.85523438 -179.32981445 108.52296875 -179.72509766 109.2109375 C-196.96116301 139.48848076 -206.06275059 173.40966222 -205.875 208.25 C-205.87317719 208.96128052 -205.87135437 209.67256104 -205.86947632 210.40539551 C-205.63089499 266.15726581 -183.83697908 316.12651766 -145.5625 356.1875 C-144.88832031 356.91453125 -144.21414063 357.6415625 -143.51953125 358.390625 C-137.96712643 364.21532259 -131.63737795 369.04909773 -125.24511719 373.90625 C-123.78241415 375.0200436 -122.33152144 376.14931415 -120.8828125 377.28125 C-78.15011021 409.76342869 -22.90531394 421.38799594 29.72290039 414.52539062 C38.4631695 413.2822558 46.96213752 411.66128246 55.4375 409.1875 C56.31664062 408.93403809 57.19578125 408.68057617 58.1015625 408.41943359 C112.13912975 392.48976246 155.71191171 355.75607707 182.9765625 306.7890625 C193.8305337 286.76435628 200.88050004 264.64409106 204.4375 242.1875 C204.55319336 241.50268555 204.66888672 240.81787109 204.78808594 240.11230469 C213.07524974 189.87291109 199.58786744 134.69529271 170.4375 93.1875 C165.14956486 85.86246541 159.43235458 78.9402739 153.4375 72.1875 C152.13619141 70.7025 152.13619141 70.7025 150.80859375 69.1875 C145.97833985 63.75991699 141.05985606 58.78251525 135.4375 54.1875 C134.94217773 53.76919922 134.44685547 53.35089844 133.93652344 52.91992188 C119.19794621 40.4747815 103.05922834 30.0728361 85.4375 22.1875 C84.31553223 21.68524902 84.31553223 21.68524902 83.17089844 21.17285156 C2.63511608 -14.22566607 -90.76274344 6.88976087 -151.06787109 69.78051758 Z " fill="#FE81FE" transform="translate(403.5625,193.8125)"/>
<path d="M0 0 C1.30324219 -0.0309375 1.30324219 -0.0309375 2.6328125 -0.0625 C18.42954142 -0.15737525 26.76065534 10.68767914 37.31208706 21.0920763 C39.37297709 23.13083425 41.43118932 25.17225379 43.48828125 27.21484375 C44.5573877 28.27596469 44.5573877 28.27596469 45.64809227 29.35852242 C49.41122888 33.0951285 53.17081651 36.83526797 56.92797852 40.57788086 C60.01970595 43.65622455 63.11856029 46.72711416 66.22387695 49.79174805 C70.00079352 53.51922005 73.765167 57.25893692 77.52098656 61.00766182 C78.94438983 62.42438486 80.37201845 63.83687672 81.80407143 65.24485588 C92.25737968 75.53219296 100.27482648 84.03187858 100.5 99.4375 C100.36817977 110.0670036 97.66825801 117.52646388 90.25 125.25 C81.59970217 132.79600449 72.3389286 133.82223202 61.25 133.25 C50.54289282 132.1845293 43.09658431 125.55588506 35.77416992 118.16235352 C35.08677734 117.4802179 34.39938477 116.79808228 33.69116211 116.09527588 C31.44671722 113.8639132 29.21328313 111.62190234 26.98046875 109.37890625 C25.41151428 107.81197543 23.84211494 106.24548994 22.27229309 104.6794281 C18.99539826 101.40694028 15.72395073 98.12912846 12.45629883 94.84741211 C8.27581767 90.64981203 4.08197286 86.4658634 -0.1160326 82.28579807 C-3.3548637 79.05782435 -6.58649494 75.82271866 -9.81601524 72.58543205 C-11.35952521 71.03992698 -12.90524988 69.49663036 -14.45325661 67.95562935 C-16.61657649 65.79995896 -18.76999642 63.63485085 -20.92114258 61.46704102 C-21.55652451 60.83773178 -22.19190643 60.20842255 -22.84654236 59.56004333 C-30.79172371 51.5009234 -32.9353413 44.58896774 -33 33.5 C-33.020625 32.63117187 -33.04125 31.76234375 -33.0625 30.8671875 C-33.12374522 20.66985799 -30.06576626 14.83303063 -23.09765625 7.45703125 C-16.04383878 0.82573862 -9.28291531 0.05412779 0 0 Z M-23.75 15.25 C-29.70296765 23.36173614 -29.86843051 32.87573292 -28.39453125 42.59375 C-24.82793735 54.27494346 -10.41389616 64.79886073 -2.00390625 73.26953125 C-1.30752485 73.97123632 -0.61114346 74.6729414 0.10634041 75.39591026 C3.78459357 79.10069031 7.46637759 82.8019237 11.15063477 86.50073242 C14.18047691 89.54395856 17.20286203 92.59430936 20.21899414 95.65112305 C23.88810869 99.36968842 27.56947164 103.07570243 31.25984383 106.77316856 C32.65423902 108.17424283 34.04440398 109.57954143 35.4300518 110.98926735 C48.7228177 124.51881969 48.7228177 124.51881969 66.64453125 129.32421875 C75.28656288 129.07804394 83.24827028 125.49438726 89.25 119.25 C94.61400434 112.36397789 97.00862082 105.05000156 96.25 96.25 C94.15471326 85.52706199 87.91288591 78.60762783 80.34594727 71.07128906 C79.35200455 70.06967995 79.35200455 70.06967995 78.33798218 69.0478363 C76.16921798 66.86529101 73.99322714 64.69013269 71.81640625 62.515625 C70.29453545 60.98986236 68.77288684 59.46387807 67.25144958 57.93768311 C64.07165919 54.75045624 60.88805436 51.5670993 57.7019043 48.38623047 C53.62709681 44.317229 49.56379695 40.23694648 45.50349522 36.15347672 C42.36797362 33.00320335 39.22553115 29.85990535 36.08106804 26.71855927 C34.58007624 25.21705548 33.0814342 23.71319879 31.5852375 22.20691681 C29.49175789 20.10105589 27.38889875 18.00501518 25.28344727 15.91113281 C24.67283951 15.29288132 24.06223175 14.67462982 23.43312073 14.03764343 C16.50903685 7.19707688 10.28824893 4.12823034 0.5 4 C-10.39819658 4.13524132 -16.27800439 7.24849289 -23.75 15.25 Z " fill="#FE81FE" transform="translate(599.75,566.75)"/>
<path d="M0 0 C0.86882812 -0.020625 1.73765625 -0.04125 2.6328125 -0.0625 C12.77090876 -0.12338947 18.69209128 2.91023726 26.04296875 9.83203125 C32.20262537 16.58039842 33.49944805 23.8879655 33.6875 32.6875 C33.73326172 33.52732422 33.77902344 34.36714844 33.82617188 35.23242188 C34.03069704 46.96149529 27.90968563 55.06696021 20.11816406 63.14233398 C17.19453456 66.12150186 14.23335698 69.06094412 11.265625 71.99609375 C9.68294939 73.58027447 8.10123974 75.16542076 6.52044678 76.7514801 C3.2181182 80.05812179 -0.09446432 83.35401847 -3.41503906 86.64233398 C-7.65467812 90.84214749 -11.8692561 95.06610455 -16.07665634 99.2981863 C-19.33436006 102.57011918 -22.60415696 105.82974713 -25.87775421 109.08577156 C-27.43607488 110.63827414 -28.99088582 112.19430841 -30.54198456 113.75402641 C-32.71620004 115.93629674 -34.90602221 118.10164554 -37.10058594 120.26342773 C-37.72846008 120.89985199 -38.35633423 121.53627625 -39.00323486 122.19198608 C-47.76905158 130.73475568 -56.98005343 133.53676672 -69.00390625 133.40625 C-78.89467667 132.84347501 -87.14504012 128.5616634 -93.75 121.25 C-100.01102943 111.2261844 -101.35039549 100.77102463 -99.171875 89.171875 C-94.99924042 75.89531042 -81.27098743 65.5937716 -71.6796875 55.9765625 C-70.61294989 54.90558382 -70.61294989 54.90558382 -69.52466202 53.81296921 C-65.77156614 50.04499088 -62.01568951 46.27981199 -58.25732422 42.51708984 C-54.3894741 38.64372677 -50.5310135 34.76114754 -46.67460442 30.87639809 C-43.69072948 27.87388126 -40.70014991 24.87811108 -37.70770645 21.8841362 C-36.28192799 20.45534148 -34.85863847 19.02405837 -33.43795395 17.59019852 C-31.4524943 15.58762306 -29.4577169 13.59479348 -27.46044922 11.60400391 C-26.88260681 11.01694672 -26.3047644 10.42988953 -25.70941162 9.82504272 C-17.83305981 2.02816293 -10.82379759 0.06311252 0 0 Z M-39.76953125 30.99609375 C-40.82208886 32.04066585 -40.82208886 32.04066585 -41.89591026 33.10634041 C-45.60069031 36.78459357 -49.3019237 40.46637759 -53.00073242 44.15063477 C-56.04395856 47.18047691 -59.09430936 50.20286203 -62.15112305 53.21899414 C-65.86968842 56.88810869 -69.57570243 60.56947164 -73.27316856 64.25984383 C-74.67424283 65.65423902 -76.07954143 67.04440398 -77.48926735 68.4300518 C-91.0326014 81.57920507 -91.0326014 81.57920507 -96.0625 99.3125 C-95.94210084 107.4327545 -92.9094937 114.93959479 -87.32421875 120.8203125 C-80.29146517 127.20737903 -73.03733082 129.13227327 -63.75 129.25 C-54.24507716 128.19203156 -46.97914311 123.08040381 -40.41943359 116.46875 C-39.73539963 115.7949379 -39.05136566 115.12112579 -38.34660339 114.42689514 C-36.10351309 112.21144892 -33.87543423 109.98161496 -31.6484375 107.75 C-30.08284314 106.19218915 -28.51680593 104.63482325 -26.9503479 103.07788086 C-23.67391973 99.8163465 -20.40531076 96.54720899 -17.14160156 93.27294922 C-12.97814135 89.09792018 -8.79243938 84.94602436 -4.60004234 80.80007935 C-1.36025426 77.58989947 1.86541989 74.36581686 5.08732224 71.13769531 C6.62387369 69.60216413 8.16510075 68.07129577 9.71123123 66.54541016 C23.1659431 53.4799528 23.1659431 53.4799528 29.9765625 36.33203125 C29.64632515 25.700929 27.39088736 18.81217909 20.1171875 10.9765625 C13.08212816 4.47134026 5.95408668 3.92675297 -3.28125 4.05078125 C-18.39229532 4.91864534 -29.6591685 20.95815774 -39.76953125 30.99609375 Z " fill="#FE81FE" transform="translate(207.75,566.75)"/>
<path d="M0 0 C7.36778056 7.46773107 10.07042867 15.12020923 10.375 25.5 C9.97875851 39.55006266 3.65156145 47.65303681 -5.97998047 57.27050781 C-6.65075623 57.94800079 -7.32153198 58.62549377 -8.01263428 59.32351685 C-10.208927 61.53864974 -12.41253519 63.74631408 -14.6171875 65.953125 C-16.15900929 67.50138155 -17.70068372 69.04978484 -19.24221802 70.59832764 C-22.46473738 73.83278269 -25.69132357 77.06311755 -28.92041016 80.29101562 C-33.04844394 84.41884578 -37.16252192 88.56028923 -41.27322197 92.70537186 C-44.44918265 95.90360627 -47.63422924 99.09267218 -50.82187271 102.27925873 C-52.34246775 103.80220654 -53.85983779 105.32838173 -55.37383652 106.85788727 C-57.49354752 108.99727812 -59.62566067 111.12352533 -61.76123047 113.24707031 C-62.37759369 113.87467255 -62.99395691 114.50227478 -63.6289978 115.14889526 C-71.36357589 122.7737434 -78.95405022 125.19634307 -89.625 125.3125 C-90.48996094 125.34150391 -91.35492187 125.37050781 -92.24609375 125.40039062 C-101.57856906 125.49133679 -108.42052999 122.23244223 -115.20703125 115.93359375 C-122.06415196 108.53865966 -123.19310354 102.00774371 -123.25 92.25 C-123.270625 91.38117188 -123.29125 90.51234375 -123.3125 89.6171875 C-123.40737525 73.82045858 -112.56232086 65.48934466 -102.1579237 54.93791294 C-100.11916575 52.87702291 -98.07774621 50.81881068 -96.03515625 48.76171875 C-94.97403531 47.6926123 -94.97403531 47.6926123 -93.89147758 46.60190773 C-90.1548715 42.83877112 -86.41473203 39.07918349 -82.67211914 35.32202148 C-79.59377545 32.23029405 -76.52288584 29.13143971 -73.45825195 26.02612305 C-69.73077995 22.24920648 -65.99106308 18.484833 -62.24233818 14.72901344 C-60.82561514 13.30561017 -59.41312328 11.87798155 -58.00514412 10.44592857 C-42.18653597 -5.62788973 -20.17616528 -17.19392187 0 0 Z M-51.3840332 10.99584961 C-52.40049171 12.00442268 -52.40049171 12.00442268 -53.43748474 13.03337097 C-55.6494635 15.23227038 -57.8504321 17.44181182 -60.05078125 19.65234375 C-61.59731551 21.19685429 -63.14429464 22.74091951 -64.69169617 24.28456116 C-67.92151269 27.50997106 -71.14588203 30.74070304 -74.36645508 33.9753418 C-78.48640261 38.11240864 -82.61971233 42.23582129 -86.75718403 46.35535336 C-89.94969251 49.53700374 -93.13499976 52.72578648 -96.31819725 55.91674995 C-97.83937863 57.43992623 -99.36277416 58.9608947 -100.88845253 60.47956657 C-103.0206412 62.6041045 -105.14292453 64.73807895 -107.26293945 66.87475586 C-107.88897064 67.49471436 -108.51500183 68.11467285 -109.16000366 68.75341797 C-116.01742342 75.71060015 -119.12122563 81.92022326 -119.25 91.75 C-119.12773793 101.60228547 -116.9349022 106.80351794 -110.1953125 114.015625 C-103.26414832 120.28080544 -95.6110907 121.36636925 -86.578125 121.2734375 C-71.69015761 120.13571073 -60.87446097 105.07851391 -50.95703125 95.23046875 C-50.24245947 94.52122065 -49.52788769 93.81197254 -48.79166222 93.08123207 C-45.01553952 89.331695 -41.24300383 85.57858672 -37.47290039 81.82299805 C-34.36751067 78.7309729 -31.25500595 75.64638999 -28.13598633 72.56811523 C-24.34840448 68.82998444 -20.57337093 65.07960292 -16.80689049 61.32021523 C-15.37790373 59.89791145 -13.94468938 58.47984117 -12.5070591 57.06627464 C1.06042181 43.7297911 1.06042181 43.7297911 6.25 25.8125 C5.644699 16.5816598 2.51190565 9.60325503 -4 3 C-9.82269249 -1.86212611 -16.06967663 -3.50696766 -23.5 -4.25 C-35.45957777 -3.05404222 -43.06773948 2.59755966 -51.3840332 10.99584961 Z " fill="#FE81FE" transform="translate(690,116)"/>
<path d="M0 0 C2.61477496 2.24142263 5.05005509 4.62853767 7.47583008 7.07177734 C8.50691895 8.09257133 8.50691895 8.09257133 9.55883789 9.13398743 C11.80339996 11.36041543 14.03687574 13.59757447 16.26953125 15.8359375 C17.83855975 17.40039912 19.40795784 18.96449014 20.97770691 20.52822876 C24.2547499 23.79636794 27.52609667 27.07008113 30.79370117 30.34765625 C34.97248319 34.5379481 39.16694856 38.71213593 43.3660326 42.88207054 C46.60650189 46.10416254 49.83757697 49.33554811 53.06601524 52.5696907 C54.60864035 54.11246871 56.15435436 55.65216476 57.70325661 57.18864059 C59.86897458 59.33941541 62.02146542 61.50264158 64.17114258 63.66943359 C64.80652451 64.29514755 65.44190643 64.92086151 66.09654236 65.5655365 C74.49535598 74.1043662 76.3935573 82.50514815 76.45092773 94.16699219 C76.27642029 103.2089127 73.92224945 109.57211987 67.87890625 116.39453125 C60.41560419 123.57327067 53.24067492 125.52277032 43.0625 125.4375 C42.22009766 125.45748047 41.37769531 125.47746094 40.50976562 125.49804688 C26.46381722 125.48723398 18.28146461 116.41653829 8.91308594 107.09008789 C8.2551001 106.43867325 7.59711426 105.78725861 6.91918945 105.11610413 C4.77139489 102.98781046 2.62745006 100.85570159 0.484375 98.72265625 C-0.25351006 97.98884672 -0.99139511 97.25503719 -1.75164032 96.49899101 C-5.64955393 92.62182892 -9.54426031 88.74147673 -13.43652344 84.85864258 C-17.44499214 80.86127682 -21.46501011 76.87573528 -25.48767471 72.892663 C-28.59306004 69.81344775 -31.68950233 66.72535542 -34.78362274 63.63482475 C-36.26177316 62.16153114 -37.74328773 60.69160445 -39.22827911 59.22520638 C-41.30531538 57.17259154 -43.36928131 55.10762552 -45.43066406 53.03930664 C-46.03956482 52.44321594 -46.64846558 51.84712524 -47.27581787 51.23297119 C-54.52076395 43.89915814 -57.11247498 36.54665339 -57.25 26.3125 C-57.12604363 15.51702699 -54.68172194 7.78593134 -47 0 C-33.11199496 -11.83521597 -14.0707699 -10.48510901 0 0 Z M-45.79296875 5.8203125 C-51.51729424 12.80257619 -53.85073353 21.06729797 -53 30 C-50.78913367 39.37215076 -45.82865441 45.47136903 -39.15527344 52.13525391 C-38.47503616 52.8222084 -37.79479889 53.5091629 -37.09394836 54.2169342 C-34.85435796 56.47544846 -32.60736909 58.72641465 -30.359375 60.9765625 C-28.79227257 62.55009586 -27.22531927 64.12377775 -25.6585083 65.69760132 C-22.3769691 68.99109863 -19.09133915 72.2804527 -15.80322266 75.56738281 C-11.5989044 79.77149778 -7.40851709 83.98920614 -3.2215538 88.21059608 C0.00931041 91.46373784 3.24926513 94.70770789 6.49181366 97.94919968 C8.04031888 99.50005882 9.58559642 101.05414797 11.12751007 102.61156082 C13.28814951 104.79187957 15.46119785 106.95906175 17.63769531 109.12353516 C18.26655136 109.76363022 18.89540741 110.40372528 19.5433197 111.06321716 C26.22532954 117.65220806 33.1617661 121.11663786 42.625 121.3125 C49.02135471 121.2532135 53.60143235 120.43348903 59 117 C59.62390625 116.61070312 60.2478125 116.22140625 60.890625 115.8203125 C66.60989417 111.61789298 69.80945249 105.64904705 72 99 C73.20493999 90.5838161 72.53716395 83.24086445 68 76 C61.58839478 67.67046211 53.62277421 60.40141932 46.23046875 52.95703125 C45.52122065 52.24245947 44.81197254 51.52788769 44.08123207 50.79166222 C40.331695 47.01553952 36.57858672 43.24300383 32.82299805 39.47290039 C29.7309729 36.36751067 26.64638999 33.25500595 23.56811523 30.13598633 C19.82998444 26.34840448 16.07960292 22.57337093 12.32021523 18.80689049 C10.89791145 17.37790373 9.47984117 15.94468938 8.06627464 14.5070591 C-5.29948875 0.81572596 -5.29948875 0.81572596 -23.33984375 -4.0625 C-32.42100342 -3.84913942 -39.38505166 -0.68532882 -45.79296875 5.8203125 Z " fill="#FE81FE" transform="translate(165,116)"/>
<path d="M0 0 C8.13401995 4.88961595 13.77398517 11.31226086 16.25 20.5625 C16.66845965 24.30971778 16.67063105 28.02499658 16.65405273 31.79272461 C16.66091599 32.89134323 16.66777924 33.98996185 16.67485046 35.12187195 C16.69308077 38.73632912 16.68928623 42.35035068 16.68359375 45.96484375 C16.68815724 48.48775879 16.69346332 51.01067259 16.69947815 53.53358459 C16.70840179 58.8149916 16.70622975 64.09628646 16.69604492 69.37768555 C16.68456689 75.4637906 16.69864167 81.54945481 16.7254414 87.6355018 C16.75034883 93.51416538 16.75276304 99.3926586 16.74632454 105.27136421 C16.7461715 107.76195573 16.75220115 110.2525558 16.76461601 112.74311638 C16.77954982 116.2300349 16.76883013 119.71599172 16.75170898 123.20288086 C16.76137695 124.22393921 16.77104492 125.24499756 16.78100586 126.29699707 C16.68216987 135.94552506 13.59036614 142.81779495 7.04296875 149.83984375 C-0.0210526 156.62684466 -7.16082033 157.92345716 -16.5625 157.9375 C-17.41392578 157.96199219 -18.26535156 157.98648438 -19.14257812 158.01171875 C-28.49351236 158.0544496 -35.26020563 154.665186 -42.02734375 148.35546875 C-49.22704687 140.8619002 -50.04924065 133.46373966 -50.04052734 123.55932617 C-50.04724457 122.4609996 -50.05396179 121.36267303 -50.06088257 120.23106384 C-50.07985595 116.60581926 -50.08378649 112.98075988 -50.0859375 109.35546875 C-50.09236594 106.82969589 -50.09909433 104.30392377 -50.10610962 101.77815247 C-50.1180808 96.48481215 -50.1218764 91.19154057 -50.12060547 85.89819336 C-50.119405 79.79737941 -50.14049355 73.69691976 -50.1720928 67.5961954 C-50.20149452 61.70794348 -50.20857891 55.81983072 -50.20738602 49.93151283 C-50.20974155 47.43533189 -50.2185623 44.93914815 -50.23405075 42.44301414 C-50.25371583 38.94633225 -50.24786964 35.45055487 -50.23583984 31.95385742 C-50.24707886 30.92965698 -50.25831787 29.90545654 -50.26989746 28.85021973 C-50.18924487 19.59264844 -47.32161934 12.1574697 -40.88671875 5.42578125 C-29.86941157 -4.18163287 -13.34017203 -6.04370738 0 0 Z M-41.34765625 13.2421875 C-45.53794493 20.17542281 -46.19092662 26.3212344 -46.15405273 34.24194336 C-46.16091599 35.28204056 -46.16777924 36.32213776 -46.17485046 37.39375305 C-46.19307089 40.81342428 -46.18928768 44.23263465 -46.18359375 47.65234375 C-46.18815773 50.04073739 -46.19346395 52.42912971 -46.19947815 54.81752014 C-46.20839987 59.81647079 -46.20599658 64.8152616 -46.19604492 69.81420898 C-46.18455516 76.20750116 -46.20477233 82.60024101 -46.23396206 88.99346066 C-46.25234292 93.92382793 -46.2520278 98.8540633 -46.24632454 103.78445625 C-46.24617157 106.14107602 -46.25219605 108.49770487 -46.26461601 110.85429192 C-46.2795597 114.15443053 -46.26882319 117.45355437 -46.25170898 120.75366211 C-46.26137695 121.71861603 -46.27104492 122.68356995 -46.28100586 123.67776489 C-46.18014972 133.00574446 -42.99252314 140.0145547 -36.6875 146.8359375 C-29.85583388 152.92383352 -22.19133041 153.92712274 -13.328125 153.8359375 C-4.88128937 153.19043696 1.6767897 148.81660025 7.25 142.5625 C10.31389259 137.74528159 12.36573626 132.91422661 12.39717102 127.16220093 C12.40432632 126.26235474 12.41148163 125.36250854 12.41885376 124.43539429 C12.42154266 123.45043976 12.42423157 122.46548523 12.42700195 121.45068359 C12.43357315 120.41131653 12.44014435 119.37194946 12.44691467 118.30108643 C12.46665717 114.8543694 12.47831367 111.40769601 12.48828125 107.9609375 C12.49439454 106.19463926 12.49439454 106.19463926 12.50063133 104.39265823 C12.5214981 98.15777003 12.5357961 91.92290386 12.54516602 85.68798828 C12.55621967 79.25536911 12.59060626 72.82309689 12.63033772 66.3906002 C12.65651735 61.43880583 12.66485918 56.48709385 12.66844749 51.53523636 C12.67331148 49.16464526 12.68492002 46.79405779 12.70348549 44.42353439 C12.72790013 41.0989737 12.72690697 37.77530698 12.7199707 34.45068359 C12.73278076 33.47787445 12.74559082 32.50506531 12.75878906 31.5027771 C12.69409173 22.96104054 10.09382455 15.52289226 4.1875 9.203125 C-3.07469307 3.05368732 -10.82389644 0.52438005 -20.28515625 0.984375 C-28.93851336 2.42822714 -35.70613625 6.61017162 -41.34765625 13.2421875 Z " fill="#FE81FE" transform="translate(420.75,650.4375)"/>
<path d="M0 0 C0.96846359 -0.00997513 1.93692719 -0.01995026 2.93473816 -0.03022766 C3.985737 -0.03089233 5.03673584 -0.03155701 6.11958313 -0.03224182 C7.23566452 -0.04056534 8.35174591 -0.04888885 9.50164795 -0.0574646 C13.19244373 -0.08156489 16.88306269 -0.09033768 20.57392883 -0.09693909 C23.14357557 -0.10590664 25.71322177 -0.11502851 28.28286743 -0.1242981 C33.67214071 -0.14079163 39.06134299 -0.14852155 44.45063782 -0.15138245 C50.65997398 -0.15501177 56.86881407 -0.184867 63.07799882 -0.22678703 C69.07038212 -0.26581074 75.06249281 -0.27697795 81.05501747 -0.2781086 C83.59504189 -0.28230538 86.13506694 -0.2947177 88.67500877 -0.31562614 C92.23639423 -0.34260476 95.79642751 -0.33769386 99.35786438 -0.32521057 C100.39874207 -0.34004486 101.43961975 -0.35487915 102.51203918 -0.37016296 C111.36004727 -0.28224107 119.10146666 2.58441073 125.43721008 8.96165466 C132.25354495 16.45410371 133.39891606 23.53213977 133.49971008 33.39915466 C133.51517883 34.67000916 133.51517883 34.67000916 133.53096008 35.96653748 C133.39160774 45.88765006 130.25010806 51.87752484 123.48017883 59.06712341 C118.3684735 63.73289645 112.38468386 66.38537514 105.43412781 66.42132568 C104.48379669 66.42848099 103.53346558 66.43563629 102.55433655 66.44300842 C100.99274811 66.44704178 100.99274811 66.44704178 99.39961243 66.45115662 C97.75277969 66.46101341 97.75277969 66.46101341 96.07267761 66.47106934 C92.43116693 66.4908153 88.78969755 66.50246894 85.14814758 66.51243591 C83.90442005 66.51651144 82.66069252 66.52058697 81.37927628 66.524786 C75.47340526 66.54350175 69.56754735 66.55806471 63.66165388 66.56639796 C56.85960577 66.57615556 50.05788437 66.60243668 43.25595129 66.64289886 C37.35332056 66.67679749 31.45076904 66.68855132 25.54803848 66.69260216 C23.04347649 66.69746795 20.53891798 66.70908164 18.03442001 66.72764015 C14.52307566 66.75203849 11.01257845 66.75106452 7.50117493 66.74412537 C5.95780457 66.76334045 5.95780457 66.76334045 4.383255 66.78294373 C-5.72670796 66.71036504 -12.65900235 63.28668544 -19.98857117 56.43040466 C-27.962211 47.60986521 -27.56152941 36.68448619 -27.1125946 25.46556091 C-26.47663156 17.49292921 -21.53261831 11.63789231 -15.93778992 6.27415466 C-10.91558769 2.45728097 -6.36711226 0.03534179 0 0 Z M-19.93778992 18.27415466 C-23.82731877 24.6519343 -23.71326052 32.02481152 -22.93778992 39.27415466 C-20.90650282 47.53701743 -16.60762353 53.44532458 -9.93778992 58.58665466 C-3.42237139 62.25157759 2.20663682 62.57148138 9.51460266 62.56468201 C11.07431038 62.57475784 11.07431038 62.57475784 12.66552734 62.58503723 C16.0959809 62.60400311 19.52623864 62.60794078 22.95674133 62.61009216 C25.34799275 62.61652116 27.73924339 62.6232496 30.13049316 62.63026428 C35.14136071 62.6422336 40.15215933 62.64594546 45.16304016 62.64476013 C51.57205848 62.64455699 57.98063316 62.67185636 64.38954639 62.70630455 C69.32848119 62.72858314 74.2673094 62.73259736 79.20628929 62.73154068 C81.5684989 62.73389529 83.93071151 62.74271083 86.29287148 62.75820541 C89.60277159 62.77788355 92.91171719 62.77201937 96.22163391 62.75999451 C97.18972992 62.77123352 98.15782593 62.78247253 99.15525818 62.79405212 C108.55806534 62.7076017 115.48234811 59.50316996 122.33564758 53.14134216 C128.77085525 46.18199993 129.43065878 39.03701371 129.33564758 29.88743591 C128.75540279 22.21991547 126.00001853 16.02702435 120.18081665 10.92030907 C112.89767516 5.26131809 106.07036281 3.533086 96.98799133 3.62718201 C95.92970123 3.61842041 94.87141113 3.60965881 93.78105164 3.60063171 C90.31184369 3.57877522 86.8439291 3.59314261 83.37471008 3.61009216 C80.9467291 3.60672011 78.51874977 3.60186425 76.09077454 3.59559631 C71.013706 3.58824354 65.9370787 3.5988797 60.86006165 3.62229919 C54.37037021 3.65078506 47.88171287 3.63437265 41.39205933 3.60443687 C36.38183377 3.58632124 31.37185114 3.59214167 26.36161804 3.60507584 C23.96954728 3.60839802 21.57745407 3.60436488 19.18540955 3.59267807 C15.83515976 3.5798997 12.48655678 3.59944626 9.13642883 3.62718201 C8.1595108 3.61706085 7.18259277 3.6069397 6.17607117 3.59651184 C-5.30743224 3.77157478 -13.4054486 9.01608819 -19.93778992 18.27415466 Z " fill="#FE81FE" transform="translate(674.9377899169922,370.72584533691406)"/>
<path d="M0 0 C1.10866425 -0.0071553 2.21732849 -0.01431061 3.35958862 -0.02168274 C6.99593287 -0.03848424 10.63102949 -0.01921681 14.26733398 0.00219727 C16.8098104 0.00136785 19.35228676 -0.00109427 21.89476013 -0.00511169 C27.21143236 -0.00796381 32.52766971 0.00613976 37.84423828 0.03417969 C43.97017853 0.06624141 50.09548201 0.06620456 56.22146755 0.04896492 C62.14287032 0.03304247 68.06407963 0.03996953 73.98548698 0.05690193 C76.49281229 0.06207016 79.0001559 0.06161853 81.50747871 0.05535698 C85.01579859 0.04988328 88.52305179 0.07035044 92.03125 0.09765625 C93.058517 0.09113037 94.085784 0.08460449 95.1441803 0.07788086 C104.74606906 0.20441916 111.71375851 3.25534203 118.72827148 9.76782227 C121.28908997 12.53768716 122.81170718 15.22656852 124.45092773 18.63110352 C124.80670898 19.3362207 125.16249023 20.04133789 125.52905273 20.76782227 C128.3579828 29.55428725 127.86310586 42.29566865 123.78295898 50.55688477 C118.74823003 58.39688792 112.64273953 64.22673096 103.45092773 66.63110352 C99.78312495 66.92853426 96.1261194 66.92486686 92.44775391 66.92163086 C91.34942734 66.92834808 90.25110077 66.93506531 89.11949158 66.94198608 C85.49424699 66.96095947 81.86918761 66.96489001 78.24389648 66.96704102 C75.71812362 66.97346945 73.1923515 66.98019785 70.6665802 66.98721313 C65.37323989 66.99918432 60.07996831 67.00297992 54.78662109 67.00170898 C48.68580714 67.00050852 42.58534749 67.02159707 36.48462313 67.05319631 C30.59637122 67.08259803 24.70825845 67.08968243 18.81994057 67.08848953 C16.32375962 67.09084506 13.82757588 67.09966582 11.33144188 67.11515427 C7.83475999 67.13481935 4.3389826 67.12897315 0.84228516 67.11694336 C-0.18191528 67.12818237 -1.20611572 67.13942139 -2.26135254 67.15100098 C-11.80984997 67.06781382 -18.77945588 64.04002891 -25.75610352 57.56469727 C-34.09983994 48.56655014 -34.07608187 39.53676014 -33.88891602 27.80297852 C-33.63001593 21.7913399 -32.32558219 17.37570355 -28.54907227 12.63110352 C-28.04118164 11.98270508 -27.53329102 11.33430664 -27.01000977 10.66625977 C-19.61464892 2.37714678 -10.78166717 -0.12295762 0 0 Z M-25.54907227 16.63110352 C-30.91021193 24.45804926 -30.65462288 33.96559935 -29.14672852 43.05688477 C-27.15205057 49.56240302 -21.99423776 55.39971519 -16.35375977 59.05297852 C-11.96066527 61.29005247 -8.05917712 62.75143923 -3.14877319 62.77827454 C-1.79900391 62.78900749 -1.79900391 62.78900749 -0.42196655 62.79995728 C1.05546524 62.80399063 1.05546524 62.80399063 2.56274414 62.80810547 C3.60211121 62.81467667 4.64147827 62.82124786 5.71234131 62.82801819 C9.15905834 62.84776069 12.60573173 62.85941718 16.05249023 62.86938477 C17.23002239 62.87346029 18.40755455 62.87753582 19.6207695 62.88173485 C25.85565771 62.90260162 32.09052387 62.91689961 38.32543945 62.92626953 C44.75805862 62.93732319 51.19033085 62.97170977 57.62282753 63.01144123 C62.57462191 63.03762087 67.52633388 63.0459627 72.47819138 63.04955101 C74.84878248 63.05441499 77.21936995 63.06602354 79.58989334 63.084589 C82.91445404 63.10900364 86.23812075 63.10801048 89.56274414 63.10107422 C91.02195786 63.12028931 91.02195786 63.12028931 92.51065063 63.13989258 C101.87056739 63.06899814 108.88485622 59.90009904 115.72436523 53.56469727 C121.8830413 46.66753742 122.82434685 38.88977216 122.72436523 29.95141602 C122.04159839 21.66067573 117.57972615 15.09265371 111.45092773 9.63110352 C106.62062349 6.55888795 101.78538454 4.51797468 96.01939392 4.47720337 C94.65917114 4.46430267 94.65917114 4.46430267 93.27146912 4.45114136 C91.78236778 4.44475143 91.78236778 4.44475143 90.26318359 4.43823242 C89.21566925 4.43005493 88.16815491 4.42187744 87.08889771 4.41345215 C83.61452811 4.38859656 80.14019946 4.37207907 76.66577148 4.35766602 C75.47845491 4.35234234 74.29113834 4.34701866 73.06784248 4.34153366 C66.77993541 4.31479774 60.49204819 4.29542668 54.20410156 4.28100586 C47.71993683 4.26438291 41.2362828 4.21962532 34.75231075 4.16863441 C29.7584426 4.13491562 24.76469478 4.12342313 19.77072334 4.11777878 C17.38140536 4.11107616 14.99209503 4.0958801 12.60288811 4.07188797 C9.24965206 4.04014419 5.89778147 4.04021453 2.54443359 4.04760742 C1.56586899 4.03120209 0.58730438 4.01479675 -0.4209137 3.99789429 C-10.69312669 4.09011689 -19.27562535 8.44400568 -25.54907227 16.63110352 Z " fill="#FE81FE" transform="translate(33.549072265625,370.368896484375)"/>
<path d="M0 0 C2.16015625 1.390625 2.16015625 1.390625 4.0625 2.9375 C4.72121094 3.46859375 5.37992187 3.9996875 6.05859375 4.546875 C11.19382575 9.20167989 15.73263397 15.94494358 16.2023077 23.05350399 C16.20917882 23.87582799 16.21604994 24.69815199 16.22312927 25.5453949 C16.2331749 26.49139053 16.24322052 27.43738617 16.25357056 28.41204834 C16.25940155 29.44839417 16.26523254 30.48473999 16.27124023 31.55249023 C16.28102402 32.64555984 16.2908078 33.73862946 16.30088806 34.86482239 C16.33086365 38.49190045 16.35223866 42.11894142 16.37109375 45.74609375 C16.37766558 46.98607683 16.3842374 48.22605991 16.39100838 49.50361824 C16.41690449 54.72020332 16.44039018 59.93678295 16.45550442 65.15341091 C16.47735238 72.60501662 16.51919185 80.05589642 16.58894199 87.5072121 C16.64215161 93.39382313 16.66201718 99.28021169 16.67070198 105.16703987 C16.67923731 107.66078367 16.69800742 110.15451525 16.7274456 112.6480999 C17.02280846 139.10071432 17.02280846 139.10071432 8.1181488 149.12669373 C0.98822262 156.2769851 -7.12850048 158.31786579 -16.9375 158.4375 C-27.65573526 158.29590734 -34.60528003 155.55132132 -42.83203125 148.62109375 C-48.8925268 140.89649181 -50.67978705 132.99283773 -50.56860352 123.36669922 C-50.57575882 122.26764252 -50.58291412 121.16858582 -50.59028625 120.03622437 C-50.60706384 116.43777692 -50.58783589 112.84059441 -50.56640625 109.2421875 C-50.56723583 106.72356056 -50.56969855 104.20493369 -50.57371521 101.68630981 C-50.57656558 96.42273544 -50.56248066 91.15948351 -50.53442383 85.89599609 C-50.50234658 79.83194909 -50.50240644 73.76854525 -50.5196386 67.7044524 C-50.53556108 61.84016005 -50.52863471 55.9761028 -50.51170158 50.11182022 C-50.50653429 47.62961475 -50.50698384 45.14739078 -50.51324654 42.66518784 C-50.51872054 39.19289564 -50.49825288 35.72168099 -50.47094727 32.24951172 C-50.47747314 31.2331665 -50.48399902 30.21682129 -50.49072266 29.16967773 C-50.36405741 19.65630079 -47.31850301 12.68778558 -40.875 5.73046875 C-30.76816945 -3.62242484 -12.55249727 -5.96341381 0 0 Z M-41.24609375 13.36328125 C-45.76483772 20.24053824 -46.38460761 26.5597002 -46.37329102 34.56933594 C-46.38336685 35.60461426 -46.39344269 36.63989258 -46.40382385 37.70654297 C-46.43220123 41.11176506 -46.4381755 44.51654219 -46.44140625 47.921875 C-46.45105505 50.30308205 -46.4611481 52.68428734 -46.47166443 55.06549072 C-46.48960074 60.05184041 -46.49518807 65.0380344 -46.4934082 70.02441406 C-46.49310365 76.39071298 -46.53404196 82.75600574 -46.58572483 89.1220665 C-46.61920425 94.03969847 -46.62516219 98.95709029 -46.62357903 103.87482452 C-46.62710211 106.22061884 -46.6402755 108.56642051 -46.66357613 110.91210175 C-47.06990021 129.76770862 -47.06990021 129.76770862 -38.22657776 145.89788818 C-32.52721143 151.59923219 -24.85055644 154.13276098 -16.9375 154.4375 C-8.32739483 154.09530351 -1.03393041 151.15712477 5.18117619 145.12077141 C11.25725334 138.06949963 12.80404366 129.94931565 12.69360352 120.91748047 C12.70075882 119.87694519 12.70791412 118.83640991 12.71528625 117.76434326 C12.73205114 114.36066374 12.71284401 110.95832397 12.69140625 107.5546875 C12.69223594 105.17058199 12.69469909 102.78647654 12.69871521 100.40237427 C12.70156471 95.4212306 12.68695198 90.4405387 12.65942383 85.45947266 C12.62530619 79.08976056 12.63138017 72.72085375 12.6500864 66.35110283 C12.66067633 61.43357687 12.65170093 56.51623687 12.63670158 51.59872818 C12.6315365 49.25049518 12.63198113 46.90224262 12.63824654 44.5540123 C12.64372414 41.26849618 12.623242 37.98411687 12.59594727 34.69873047 C12.60247314 33.73848969 12.60899902 32.7782489 12.61572266 31.78890991 C12.48702852 22.6337509 9.39413911 15.37869906 3.08203125 8.734375 C-4.10698006 2.33796262 -11.69567797 0.93994254 -21.09375 1.46484375 C-30.0517356 2.56638466 -35.37975283 6.73762271 -41.24609375 13.36328125 Z " fill="#FE81FE" transform="translate(420.9375,2.0625)"/>
</svg>
